{"asset":{"version":"2.0","generator":"Point105-AR.GLTFExporter"},"scenes":[{"nodes":[0,1]}],"scene":0,"nodes":[{"matrix":[0.14902371400493322,0.04244325108703288,0.2599933075680008,0,-0.021354538226467976,0.2996740014345881,-0.03668096836408437,0,-0.26256795927934606,-0.000283161006712446,0.15054568561913054,0,-0.4332164833068848,0.690441480255127,-0.21078127174377442,1],"name":"SD","mesh":0},{"matrix":[-0.016354098112845925,0.038903993570746795,0.29970825754051694,0,0.29654991128441527,-0.055815284923852876,0.023426928199930787,0,0.058281304643350205,0.2949188873774051,-0.0351020836411827,0,-0.6287076515197754,0.9590831253051758,-0.3359841915130615,1],"name":"unamed","mesh":1}],"bufferViews":[{"buffer":0,"byteOffset":0,"byteLength":928512,"target":34962,"byteStride":12},{"buffer":0,"byteOffset":928512,"byteLength":928512,"target":34962,"byteStride":12},{"buffer":0,"byteOffset":1857024,"byteLength":619008,"target":34962,"byteStride":8},{"buffer":0,"byteOffset":2476032,"byteLength":309504,"target":34963},{"buffer":0,"byteOffset":2785536,"byteLength":928512,"target":34962,"byteStride":12},{"buffer":0,"byteOffset":3714048,"byteLength":928512,"target":34962,"byteStride":12},{"buffer":0,"byteOffset":4642560,"byteLength":619008,"target":34962,"byteStride":8},{"buffer":0,"byteOffset":5261568,"byteLength":309504,"target":34963}],"buffers":[{"byteLength":5571072,"uri":"01.bin"}],"accessors":[{"bufferView":0,"componentType":5126,"count":77376,"max":[0.3633284568786621,1.583141803741455,1.9378929138183594],"min":[-1.5840973854064941,-3.240089178085327,-0.43900004029273987],"type":"VEC3"},{"bufferView":1,"componentType":5126,"count":77376,"max":[0.9999827742576599,0.9999299049377441,0.9999822974205017],"min":[-0.9999933242797852,-0.9999956488609314,-0.9999892115592957],"type":"VEC3"},{"bufferView":2,"componentType":5126,"count":77376,"max":[2,1],"min":[0,-3],"type":"VEC2"},{"bufferView":3,"componentType":5125,"count":77376,"max":[77375],"min":[0],"type":"SCALAR"},{"bufferView":4,"componentType":5126,"count":77376,"max":[2.4341554641723633,2.7876315116882324,3.2832581996917725],"min":[-0.7755999565124512,-2.205733060836792,-1.8914440870285034],"type":"VEC3"},{"bufferView":5,"componentType":5126,"count":77376,"max":[0.999894380569458,0.9998506307601929,0.9999630451202393],"min":[-0.9999473094940186,-0.9999445676803589,-0.9996177554130554],"type":"VEC3"},{"bufferView":6,"componentType":5126,"count":77376,"max":[2,1],"min":[0,-3],"type":"VEC2"},{"bufferView":7,"componentType":5125,"count":77376,"max":[77375],"min":[0],"type":"SCALAR"}],"materials":[{"pbrMetallicRoughness":{"baseColorFactor":[0.5,0.5,0.5,1],"metallicFactor":1,"roughnessFactor":1},"name":"MATERIAL ESCULTURA VR"}],"meshes":[{"primitives":[{"mode":4,"attributes":{"POSITION":0,"NORMAL":1,"TEXCOORD_0":2},"indices":3,"material":0}]},{"primitives":[{"mode":4,"attributes":{"POSITION":4,"NORMAL":5,"TEXCOORD_0":6},"indices":7,"material":0}]}]}