{"asset":{"version":"2.0","generator":"Point105-AR.GLTFExporter"},"scenes":[{"nodes":[0,1]}],"scene":0,"nodes":[{"matrix":[0.16342919747480447,0.011450681982132076,-0.015561656260130263,0,-0.00036707758949058086,-0.13068589698569905,-0.10001723568345387,0,-0.01931705250439801,0.09936027406292888,-0.12975659240036705,0,-0.27354619064331054,0.8795835205078126,0.0016805175781250002,1],"name":"zxc","mesh":0},{"matrix":[0.16456726846694944,0,0,0,0,0.16456726846694927,7.1934639904943135e-9,0,0,-7.1934639904943135e-9,0.16456726846694927,0,-0.1888921039581299,-0.30877211704254154,-0.1366812889099121,1],"name":"unamed","mesh":1}],"bufferViews":[{"buffer":0,"byteOffset":0,"byteLength":707688,"target":34962,"byteStride":12},{"buffer":0,"byteOffset":707688,"byteLength":707688,"target":34962,"byteStride":12},{"buffer":0,"byteOffset":1415376,"byteLength":471792,"target":34962,"byteStride":8},{"buffer":0,"byteOffset":1887168,"byteLength":117948,"target":34963},{"buffer":0,"byteOffset":2005116,"byteLength":804528,"target":34962,"byteStride":12},{"buffer":0,"byteOffset":2809644,"byteLength":804528,"target":34962,"byteStride":12},{"buffer":0,"byteOffset":3614172,"byteLength":536352,"target":34962,"byteStride":8},{"buffer":0,"byteOffset":4150524,"byteLength":268176,"target":34963}],"buffers":[{"byteLength":4418700,"uri":"02.bin"}],"accessors":[{"bufferView":0,"componentType":5126,"count":58974,"max":[2.554314613342285,1.1165375709533691,0.3857145309448242],"min":[-2.4015989303588867,-3.4850974082946777,-2.5643982887268066],"type":"VEC3"},{"bufferView":1,"componentType":5126,"count":58974,"max":[0.9996387362480164,0.9996901154518127,0.9997100234031677],"min":[-0.9997981786727905,-0.9999158382415771,-0.999695897102356],"type":"VEC3"},{"bufferView":2,"componentType":5126,"count":58974,"max":[2,1],"min":[0,-3],"type":"VEC2"},{"bufferView":3,"componentType":5123,"count":58974,"max":[58973],"min":[0],"type":"SCALAR"},{"bufferView":4,"componentType":5126,"count":67044,"max":[0.8731533288955688,6.509300231933594,2.2784485816955566],"min":[-1.0789403915405273,1.2539429664611816,-2.0857954025268555],"type":"VEC3"},{"bufferView":5,"componentType":5126,"count":67044,"max":[0.9999924898147583,0.9999207854270935,0.9999231100082397],"min":[-0.9999595880508423,-0.9998793601989746,-0.9998309016227722],"type":"VEC3"},{"bufferView":6,"componentType":5126,"count":67044,"max":[2,1],"min":[0,-3],"type":"VEC2"},{"bufferView":7,"componentType":5125,"count":67044,"max":[67043],"min":[0],"type":"SCALAR"}],"materials":[{"pbrMetallicRoughness":{"baseColorFactor":[0.5,0.5,0.5,1],"metallicFactor":1,"roughnessFactor":1},"name":"Material #3"}],"meshes":[{"primitives":[{"mode":4,"attributes":{"POSITION":0,"NORMAL":1,"TEXCOORD_0":2},"indices":3,"material":0}]},{"primitives":[{"mode":4,"attributes":{"POSITION":4,"NORMAL":5,"TEXCOORD_0":6},"indices":7,"material":0}]}]}