{"asset":{"version":"2.0","generator":"Point105-AR.GLTFExporter"},"scenes":[{"nodes":[0]}],"scene":0,"nodes":[{"matrix":[0.0006644101098179818,0,0,0,0,0.00022595786886835025,-0.0006248070386325813,0,0,0.0006248070386325813,0.00022595786886835025,0,0,-0.3795390668869019,-0.19099987258911136,1],"name":"ali","mesh":0}],"bufferViews":[{"buffer":0,"byteOffset":0,"byteLength":3015288,"target":34962,"byteStride":12},{"buffer":0,"byteOffset":3015288,"byteLength":3015288,"target":34962,"byteStride":12},{"buffer":0,"byteOffset":6030576,"byteLength":1005096,"target":34963}],"buffers":[{"byteLength":7035672,"uri":"ali.bin"}],"accessors":[{"bufferView":0,"componentType":5126,"count":251274,"max":[702.4745483398438,0,700.86767578125],"min":[-702.4745483398438,-1618.6685791015625,-700.86767578125],"type":"VEC3"},{"bufferView":1,"componentType":5126,"count":251274,"max":[1,1,1],"min":[-0.9999053478240967,-0.9999825954437256,-0.9999723434448242],"type":"VEC3"},{"bufferView":2,"componentType":5125,"count":251274,"max":[251273],"min":[0],"type":"SCALAR"}],"materials":[{"pbrMetallicRoughness":{"baseColorFactor":[0.47264073309840265,0.1320459287750193,0.32974933766520925,0.40313743668875],"metallicFactor":0.001658801119657718,"roughnessFactor":0.6289315167365745},"alphaMode":"BLEND","doubleSided":true,"name":"Material #27"}],"meshes":[{"primitives":[{"mode":4,"attributes":{"POSITION":0,"NORMAL":1},"indices":2,"material":0}]}]}