{"asset":{"version":"2.0","generator":"Point105-AR.GLTFExporter"},"scenes":[{"nodes":[0,1,2,3]}],"scene":0,"nodes":[{"matrix":[0.000777377476346766,-0.0014594064487781343,-0.0001942350329360377,0,-0.000025498880858940434,-0.00023296147699942778,0.0016483289412754156,0,-0.001472054427554226,-0.0007666628507026552,-0.00013112592099433936,0,-0.0991614860534668,1.0052644149780274,0.9258140319824218,1],"name":"aliflor001","mesh":0},{"matrix":[0.0016999431729316711,0,0,0,0,-0.00006627319752845,0.0016986508335989333,0,0,-0.0016986508335989333,-0.00006627319752845,0,0,0.7153455318450928,1.2108789962768556,1],"name":"ali","mesh":1},{"matrix":[0.0008245393223868309,0.0014337478446353556,0.0001908197980490341,0,0.000025050777981935075,-0.0002337709454862651,0.0016482212063026924,0,0.0014461734113528156,-0.00081340544755523,-0.00013734705555551942,0,0.3283912925720215,0.546288845062256,0.8036321487426759,1],"name":"aliflor","mesh":2},{"matrix":[0.015738380449813644,-0.01872287306505231,0.006849628092594712,0,-0.019223231079791618,-0.01656490960729769,-0.0011095749433862312,0,0.005284956733016585,-0.004496420119605806,-0.02443381751667445,0,0.5204169746398926,-0.5007077125549316,0.6070303894042969,1],"name":"caulke3","mesh":3}],"bufferViews":[{"buffer":0,"byteOffset":0,"byteLength":233568,"target":34962,"byteStride":12},{"buffer":0,"byteOffset":233568,"byteLength":233568,"target":34962,"byteStride":12},{"buffer":0,"byteOffset":467136,"byteLength":38928,"target":34963},{"buffer":0,"byteOffset":506064,"byteLength":1513296,"target":34962,"byteStride":12},{"buffer":0,"byteOffset":2019360,"byteLength":1513296,"target":34962,"byteStride":12},{"buffer":0,"byteOffset":3532656,"byteLength":504432,"target":34963},{"buffer":0,"byteOffset":4037088,"byteLength":233568,"target":34962,"byteStride":12},{"buffer":0,"byteOffset":4270656,"byteLength":233568,"target":34962,"byteStride":12},{"buffer":0,"byteOffset":4504224,"byteLength":38928,"target":34963},{"buffer":0,"byteOffset":4543152,"byteLength":77616,"target":34962,"byteStride":12},{"buffer":0,"byteOffset":4620768,"byteLength":77616,"target":34962,"byteStride":12},{"buffer":0,"byteOffset":4698384,"byteLength":12936,"target":34963}],"buffers":[{"byteLength":4711320,"uri":"aliflor.bin"}],"accessors":[{"bufferView":0,"componentType":5126,"count":19464,"max":[319.7503356933594,-318.7044677734375,-300.2761535644531],"min":[-186.63514709472656,-1099.8800048828125,-675.6950073242188],"type":"VEC3"},{"bufferView":1,"componentType":5126,"count":19464,"max":[0.9930604696273804,0.9979516267776489,0.9935343265533447],"min":[-0.9994354844093323,-0.993208110332489,-0.9996007084846497],"type":"VEC3"},{"bufferView":2,"componentType":5123,"count":19464,"max":[19463],"min":[0],"type":"SCALAR"},{"bufferView":3,"componentType":5126,"count":126108,"max":[702.4745483398438,0,330.3051452636719],"min":[-379.7364501953125,-1618.60400390625,-700.86767578125],"type":"VEC3"},{"bufferView":4,"componentType":5126,"count":126108,"max":[1,1,0.9976193308830261],"min":[-0.9999366998672485,-0.9999032616615295,-0.9998441338539124],"type":"VEC3"},{"bufferView":5,"componentType":5125,"count":126108,"max":[126107],"min":[0],"type":"SCALAR"},{"bufferView":6,"componentType":5126,"count":19464,"max":[319.7503356933594,-318.7044677734375,-300.2761535644531],"min":[-186.63514709472656,-1099.8800048828125,-675.6950073242188],"type":"VEC3"},{"bufferView":7,"componentType":5126,"count":19464,"max":[0.9930604696273804,0.9979516267776489,0.9935343265533447],"min":[-0.9994354844093323,-0.993208110332489,-0.9996007084846497],"type":"VEC3"},{"bufferView":8,"componentType":5123,"count":19464,"max":[19463],"min":[0],"type":"SCALAR"},{"bufferView":9,"componentType":5126,"count":6468,"max":[-12.988786697387695,22.909740447998047,23.021181106567383],"min":[-145.215087890625,-83.52175903320312,-52.90201187133789],"type":"VEC3"},{"bufferView":10,"componentType":5126,"count":6468,"max":[0.9999507665634155,1,0.9999486804008484],"min":[-0.9994620084762573,-0.9993712902069092,-0.9999584555625916],"type":"VEC3"},{"bufferView":11,"componentType":5123,"count":6468,"max":[6467],"min":[0],"type":"SCALAR"}],"materials":[{"pbrMetallicRoughness":{"baseColorFactor":[0.9701232650379397,0.04396658160382847,0.18685797007602067,0.5375575407111641],"metallicFactor":0.001658801119657718,"roughnessFactor":0},"alphaMode":"BLEND","doubleSided":true,"name":"Material #58"},{"pbrMetallicRoughness":{"baseColorFactor":[0.029742476687874202,0.07339440175245328,0.00366388165529818,0.28540720399226593],"metallicFactor":0.001658801119657718,"roughnessFactor":0.7975672596435046},"alphaMode":"BLEND","doubleSided":true,"name":"Material #57"},{"pbrMetallicRoughness":{"baseColorFactor":[0.09892480686836375,0.06353492264834588,0.03093211816025607,0.32318030974060297],"metallicFactor":0.001658801119657718,"roughnessFactor":0.8063275639136078},"emissiveFactor":[1,1,0],"alphaMode":"BLEND","doubleSided":true,"name":"Material #56"}],"meshes":[{"primitives":[{"mode":4,"attributes":{"POSITION":0,"NORMAL":1},"indices":2,"material":0}]},{"primitives":[{"mode":4,"attributes":{"POSITION":3,"NORMAL":4},"indices":5,"material":1}]},{"primitives":[{"mode":4,"attributes":{"POSITION":6,"NORMAL":7},"indices":8,"material":0}]},{"primitives":[{"mode":4,"attributes":{"POSITION":9,"NORMAL":10},"indices":11,"material":2}]}]}