{"asset":{"version":"2.0","generator":"Point105-AR.GLTFExporter"},"scenes":[{"nodes":[0,1]}],"scene":0,"nodes":[{"matrix":[0.08650416247035468,0.0793712164938948,0.051609043996812695,0,0.04787838678184451,-0.09698472808806137,0.06890490164676377,0,0.08167586747765304,-0.027210874193466617,-0.09505198980045511,0,-1.651363543701172,-0.7525364303588867,0.5937712665557862,1],"name":"Object001","mesh":0},{"matrix":[0.012936342653928876,0.007803307263947816,0.00044621768341629984,0,0.0068630196573519365,-0.011753365389155222,0.006572459357549711,0,0.003740283653857992,-0.0054227854357377665,-0.01360306911461013,0,-0.3310357774734497,0.45781067008972165,-0.09124940843582154,1],"name":"Julie","mesh":1}],"bufferViews":[{"buffer":0,"byteOffset":0,"byteLength":504036,"target":34962,"byteStride":12},{"buffer":0,"byteOffset":504036,"byteLength":504036,"target":34962,"byteStride":12},{"buffer":0,"byteOffset":1008072,"byteLength":84008,"target":34963},{"buffer":0,"byteOffset":1092080,"byteLength":12655872,"target":34962,"byteStride":12},{"buffer":0,"byteOffset":13747952,"byteLength":12655872,"target":34962,"byteStride":12},{"buffer":0,"byteOffset":26403824,"byteLength":8437248,"target":34962,"byteStride":8},{"buffer":0,"byteOffset":34841072,"byteLength":4218624,"target":34963}],"buffers":[{"byteLength":39059696,"uri":"KENDRAARR.bin"}],"accessors":[{"bufferView":0,"componentType":5126,"count":42003,"max":[19.059432983398438,1.293832778930664,15.54598331451416],"min":[9.01311206817627,-9.60000228881836,6.938471794128418],"type":"VEC3"},{"bufferView":1,"componentType":5126,"count":42003,"max":[1,1,1],"min":[-1,-1,-1],"type":"VEC3"},{"bufferView":2,"componentType":5123,"count":42003,"max":[42002],"min":[0],"type":"SCALAR"},{"bufferView":3,"componentType":5126,"count":1054656,"max":[27.527267456054688,30.283782958984375,11.773101806640625],"min":[-18.087453842163086,-6.349185943603516,-17.136611938476562],"type":"VEC3"},{"bufferView":4,"componentType":5126,"count":1054656,"max":[0.9999415874481201,0.9999510049819946,0.9991499781608582],"min":[-0.9991655349731445,-0.9999987483024597,-0.9999611973762512],"type":"VEC3"},{"bufferView":5,"componentType":5126,"count":1054656,"max":[2.002847671508789,1.0055660009384155],"min":[-0.0033299922943115234,-0.055799007415771484],"type":"VEC2"},{"bufferView":6,"componentType":5125,"count":1054656,"max":[1054655],"min":[0],"type":"SCALAR"}],"materials":[{"pbrMetallicRoughness":{"baseColorFactor":[0.8210553001592985,0.015371601491399786,0.10692656851417072,0.4124313969392195],"metallicFactor":0.001658801119657718,"roughnessFactor":0.7705319534027741},"alphaMode":"BLEND","doubleSided":true,"name":"Material #56"},{"pbrMetallicRoughness":{"metallicFactor":0,"roughnessFactor":1,"baseColorTexture":{"index":0,"extensions":{"KHR_texture_transform":{"scale":[1.100000023841858,1.100000023841858]}}},"baseColorFactor":[1,1,1,1]},"doubleSided":true,"name":"Material #57"}],"meshes":[{"primitives":[{"mode":4,"attributes":{"POSITION":0,"NORMAL":1},"indices":2,"material":0}]},{"primitives":[{"mode":4,"attributes":{"POSITION":3,"NORMAL":4,"TEXCOORD_0":5},"indices":6,"material":1}]}],"textures":[{"name":"Material__57_diffuse.png","sampler":0,"source":0}],"images":[{"mimeType":"image/png","uri":"Material__57_diffuse.png"}],"samplers":[{"magFilter":9729,"minFilter":9987}],"extensionsUsed":["KHR_texture_transform"]}