{"asset":{"version":"2.0","generator":"Point105-AR.GLTFExporter"},"scenes":[{"nodes":[0,1]}],"scene":0,"nodes":[{"matrix":[0.1599131353491012,0.0964609105946833,0.00551594580334012,0,0.08483751300421359,-0.1452897314898602,0.08124574022711313,0,0.04623566870362009,-0.06703396837406854,-0.1681548641501684,0,-4.571184545898437,5.628755651855469,-1.0677542053222657,1],"name":"Julie","mesh":0},{"matrix":[1.0693252067540489,0.981150641182551,0.6379673995101153,0,0.591850835294472,-1.1988808489388765,0.8517703212363378,0,1.009639019276682,-0.3363680150235896,-1.1749891295337436,0,-20.89246893310547,-9.33300086669922,7.400157604980469,1],"name":"Object001","mesh":1}],"bufferViews":[{"buffer":0,"byteOffset":0,"byteLength":12655872,"target":34962,"byteStride":12},{"buffer":0,"byteOffset":12655872,"byteLength":12655872,"target":34962,"byteStride":12},{"buffer":0,"byteOffset":25311744,"byteLength":8437248,"target":34962,"byteStride":8},{"buffer":0,"byteOffset":33748992,"byteLength":4218624,"target":34963},{"buffer":0,"byteOffset":37967616,"byteLength":504036,"target":34962,"byteStride":12},{"buffer":0,"byteOffset":38471652,"byteLength":504036,"target":34962,"byteStride":12},{"buffer":0,"byteOffset":38975688,"byteLength":84008,"target":34963}],"buffers":[{"byteLength":39059696,"uri":"kendra2.bin"}],"accessors":[{"bufferView":0,"componentType":5126,"count":1054656,"max":[27.527267456054688,30.283782958984375,11.773101806640625],"min":[-18.087453842163086,-6.349185943603516,-17.136611938476562],"type":"VEC3"},{"bufferView":1,"componentType":5126,"count":1054656,"max":[0.9999415874481201,0.9999510049819946,0.9991499781608582],"min":[-0.9991655349731445,-0.9999987483024597,-0.9999611973762512],"type":"VEC3"},{"bufferView":2,"componentType":5126,"count":1054656,"max":[2.002847671508789,1.0055660009384155],"min":[-0.0033299922943115234,-0.055799007415771484],"type":"VEC2"},{"bufferView":3,"componentType":5125,"count":1054656,"max":[1054655],"min":[0],"type":"SCALAR"},{"bufferView":4,"componentType":5126,"count":42003,"max":[19.059432983398438,1.293832778930664,15.54598331451416],"min":[9.01311206817627,-9.60000228881836,6.938471794128418],"type":"VEC3"},{"bufferView":5,"componentType":5126,"count":42003,"max":[1,1,1],"min":[-1,-1,-1],"type":"VEC3"},{"bufferView":6,"componentType":5123,"count":42003,"max":[42002],"min":[0],"type":"SCALAR"}],"materials":[{"pbrMetallicRoughness":{"metallicFactor":0,"roughnessFactor":1,"baseColorTexture":{"index":0,"extensions":{"KHR_texture_transform":{"scale":[1.100000023841858,1.100000023841858]}}},"baseColorFactor":[1,1,1,1]},"doubleSided":true,"name":"Material #57"},{"pbrMetallicRoughness":{"baseColorFactor":[0.8210553001592985,0.015371601491399786,0.10692656851417072,0.4124313969392195],"metallicFactor":0.001658801119657718,"roughnessFactor":0.7705319534027741},"alphaMode":"BLEND","doubleSided":true,"name":"Material #56"}],"textures":[{"name":"Material__57_diffuse.png","sampler":0,"source":0}],"images":[{"mimeType":"image/png","uri":"Material__57_diffuse.png"}],"samplers":[{"magFilter":9729,"minFilter":9987}],"meshes":[{"primitives":[{"mode":4,"attributes":{"POSITION":0,"NORMAL":1,"TEXCOORD_0":2},"indices":3,"material":0}]},{"primitives":[{"mode":4,"attributes":{"POSITION":4,"NORMAL":5},"indices":6,"material":1}]}],"extensionsUsed":["KHR_texture_transform"]}