{"asset":{"version":"2.0","generator":"Point105-AR.GLTFExporter"},"scenes":[{"nodes":[0,1,2,3,4,5,6,7,8,9,10]}],"scene":0,"nodes":[{"matrix":[0.002111526499798761,-0.003068325730316126,0.004599849104554868,0,0.005326941695995996,-0.00019105805265282137,-0.0025727380668202266,0,0.0014822075808921655,0.005057733920278957,0.0026933610772493046,0,0.16229594392776492,0.2161317445755005,0.04313931207656861,1],"name":"Object008","mesh":0},{"matrix":[0.005378713365972937,0.0024484890003368576,0.000325771935041943,0,-1.2244625217727523e-9,0.0007806166257565309,-0.005867063519041087,0,-0.002470066253981781,0.00533172861422662,0.0007093904832090395,0,-0.006508771800994874,0.24814144287109377,0.025136777210235595,1],"name":"Object006","mesh":1},{"matrix":[0.0021760334123681825,-0.005178451573474867,0.0018655553116376854,0,0.004528359144707427,0.0005438889065303775,-0.0037722593344556654,0,0.003128999226112313,0.0028141800014622916,0.004161917872326932,0,0.168795365524292,0.22873133888244632,0.04507909798622132,1],"name":"Object009","mesh":2},{"matrix":[0.00575743727469212,0.001372479841576358,-0.0000016746823346362385,0,0.0007550805596227235,-0.0031735254097367467,-0.004938663324814836,0,-0.0011461054472618585,0.004803835374509104,-0.003262116590688239,0,0.18792007026672364,0.165863010597229,0.030167919969558716,1],"name":"Object010","mesh":3},{"matrix":[0.005891678677441013,0.0004623665458938855,0.00032577174698506043,0,0.0002668399068905938,0.0007335928655306861,-0.005867064307246785,0,-0.0004987049408506992,0.005854900120473814,0.0007093903115483262,0,0.12923800535202026,0.22178762512207034,-0.0180167781829834,1],"name":"Object012","mesh":4},{"matrix":[-0.0001481392748555668,0.005820531453768147,0.001063600997690177,0,0.0001526554033552966,-0.0010598208338232244,0.005821106573638449,0,0.005914942371323914,0.00017312712283178763,-0.00012359577560372453,0,0.15564482374191285,0.19204096698760986,-0.1704499399185181,1],"name":"Object007","mesh":5},{"matrix":[0.004261067864757494,0.002388068771783201,-0.0006515901716269837,0,-0.0004234088591077209,-0.0005749045378855864,-0.004875895302327173,0,-0.0024388864623214285,0.004272090111750829,-0.0002919254349693581,0,0.1435978967666626,0.15617793073654176,0.036899176979064946,1],"name":"Object004","mesh":6},{"matrix":[0.05593804489110792,-0.025305009070132414,-3.3315370185112297e-18,0,0.025305009070132414,0.05593804489110792,-7.185035541808906e-19,0,3.3315370185112297e-18,-7.185035541808906e-19,0.06139550757408142,0,0.2982790075302124,0.24960937652587892,-0.11584612655639649,1],"name":"Object001","mesh":7},{"matrix":[0.005378713365972937,0.0024484890003368576,0.000325771935041943,0,-1.2244625217727523e-9,0.0007806166257565309,-0.005867063519041087,0,-0.002470066253981781,0.00533172861422662,0.0007093904832090395,0,0.12368345098495484,0.20553931941986087,-0.01890576219558716,1],"name":"Object002","mesh":8},{"matrix":[0.0037227970807331913,0.0038834972759184297,0.0024679988848715427,0,-0.0003480500448368243,0.0034031707406514842,-0.0048300202577110166,0,-0.004588184412247286,0.002892865979529695,0.002368899929621872,0,0.20102079677581788,0.1738173336982727,0.026466547060012818,1],"name":"Object011","mesh":9},{"matrix":[0.006097404528945538,0.004858940330890482,0.0004297822550531891,0,-0.00025045250155722877,0.000998930064534774,-0.007740271548937176,0,-0.004871477877319185,0.006030357218638185,0.0009358817582093687,0,0.12089208793640137,0.13354303569793702,0.07315115509033204,1],"name":"Object013","mesh":10}],"bufferViews":[{"buffer":0,"byteOffset":0,"byteLength":5400,"target":34962,"byteStride":12},{"buffer":0,"byteOffset":5400,"byteLength":5400,"target":34962,"byteStride":12},{"buffer":0,"byteOffset":10800,"byteLength":3600,"target":34962,"byteStride":8},{"buffer":0,"byteOffset":14400,"byteLength":900,"target":34963},{"buffer":0,"byteOffset":15300,"byteLength":1048824,"target":34962,"byteStride":12},{"buffer":0,"byteOffset":1064124,"byteLength":1048824,"target":34962,"byteStride":12},{"buffer":0,"byteOffset":2112948,"byteLength":699216,"target":34962,"byteStride":8},{"buffer":0,"byteOffset":2812164,"byteLength":349608,"target":34963},{"buffer":0,"byteOffset":3161772,"byteLength":8568,"target":34962,"byteStride":12},{"buffer":0,"byteOffset":3170340,"byteLength":8568,"target":34962,"byteStride":12},{"buffer":0,"byteOffset":3178908,"byteLength":5712,"target":34962,"byteStride":8},{"buffer":0,"byteOffset":3184620,"byteLength":1428,"target":34963},{"buffer":0,"byteOffset":3186048,"byteLength":8820,"target":34962,"byteStride":12},{"buffer":0,"byteOffset":3194868,"byteLength":8820,"target":34962,"byteStride":12},{"buffer":0,"byteOffset":3203688,"byteLength":5880,"target":34962,"byteStride":8},{"buffer":0,"byteOffset":3209568,"byteLength":1472,"target":34963},{"buffer":0,"byteOffset":3211040,"byteLength":5472,"target":34962,"byteStride":12},{"buffer":0,"byteOffset":3216512,"byteLength":5472,"target":34962,"byteStride":12},{"buffer":0,"byteOffset":3221984,"byteLength":3648,"target":34962,"byteStride":8},{"buffer":0,"byteOffset":3225632,"byteLength":912,"target":34963},{"buffer":0,"byteOffset":3226544,"byteLength":2637684,"target":34962,"byteStride":12},{"buffer":0,"byteOffset":5864228,"byteLength":2637684,"target":34962,"byteStride":12},{"buffer":0,"byteOffset":8501912,"byteLength":1758456,"target":34962,"byteStride":8},{"buffer":0,"byteOffset":10260368,"byteLength":879228,"target":34963},{"buffer":0,"byteOffset":11139596,"byteLength":668952,"target":34962,"byteStride":12},{"buffer":0,"byteOffset":11808548,"byteLength":668952,"target":34962,"byteStride":12},{"buffer":0,"byteOffset":12477500,"byteLength":445968,"target":34962,"byteStride":8},{"buffer":0,"byteOffset":12923468,"byteLength":111492,"target":34963},{"buffer":0,"byteOffset":13034960,"byteLength":528156,"target":34962,"byteStride":12},{"buffer":0,"byteOffset":13563116,"byteLength":528156,"target":34962,"byteStride":12},{"buffer":0,"byteOffset":14091272,"byteLength":88028,"target":34963},{"buffer":0,"byteOffset":14179300,"byteLength":43668,"target":34962,"byteStride":12},{"buffer":0,"byteOffset":14222968,"byteLength":43668,"target":34962,"byteStride":12},{"buffer":0,"byteOffset":14266636,"byteLength":29112,"target":34962,"byteStride":8},{"buffer":0,"byteOffset":14295748,"byteLength":7280,"target":34963},{"buffer":0,"byteOffset":14303028,"byteLength":447408,"target":34962,"byteStride":12},{"buffer":0,"byteOffset":14750436,"byteLength":447408,"target":34962,"byteStride":12},{"buffer":0,"byteOffset":15197844,"byteLength":298272,"target":34962,"byteStride":8},{"buffer":0,"byteOffset":15496116,"byteLength":74568,"target":34963},{"buffer":0,"byteOffset":15570684,"byteLength":9828,"target":34962,"byteStride":12},{"buffer":0,"byteOffset":15580512,"byteLength":9828,"target":34962,"byteStride":12},{"buffer":0,"byteOffset":15590340,"byteLength":6552,"target":34962,"byteStride":8},{"buffer":0,"byteOffset":15596892,"byteLength":1640,"target":34963}],"buffers":[{"byteLength":15598532,"uri":"KENDRAARRR.bin"}],"accessors":[{"bufferView":0,"componentType":5126,"count":450,"max":[3.1259427070617676,2.9720635414123535,5.27763032913208],"min":[-1.0435583591461182,-1.4928463697433472,-1.048487663269043],"type":"VEC3"},{"bufferView":1,"componentType":5126,"count":450,"max":[0.5851540565490723,-0.6012163758277893,0.6657292246818542],"min":[0.16015255451202393,-0.9654386639595032,-0.43562641739845276],"type":"VEC3"},{"bufferView":2,"componentType":5126,"count":450,"max":[0.5728867053985596,0.1919194459915161],"min":[0.5088945627212524,0.03824722766876221],"type":"VEC2"},{"bufferView":3,"componentType":5123,"count":450,"max":[449],"min":[0],"type":"SCALAR"},{"bufferView":4,"componentType":5126,"count":87402,"max":[16.485305786132812,30.036556243896484,11.773101806640625],"min":[-15.628196716308594,-4.747161865234375,-15.461013793945312],"type":"VEC3"},{"bufferView":5,"componentType":5126,"count":87402,"max":[0.9563931226730347,0.9999344944953918,0.9991499781608582],"min":[-0.9982743263244629,-0.9995372295379639,-0.9993406534194946],"type":"VEC3"},{"bufferView":6,"componentType":5126,"count":87402,"max":[1.7687129974365234,0.926758885383606],"min":[0.11787217855453491,-0.049050211906433105],"type":"VEC2"},{"bufferView":7,"componentType":5125,"count":87402,"max":[87401],"min":[0],"type":"SCALAR"},{"bufferView":8,"componentType":5126,"count":714,"max":[1.9155502319335938,0.908717155456543,3.022796630859375],"min":[-5.924835205078125,-4.996194839477539,-4.370819091796875],"type":"VEC3"},{"bufferView":9,"componentType":5126,"count":714,"max":[0.997861385345459,-0.06432005763053894,0.9368337392807007],"min":[-0.2724224925041199,-0.7208374738693237,-0.10392384231090546],"type":"VEC3"},{"bufferView":10,"componentType":5126,"count":714,"max":[0.5297540426254272,0.18324148654937744],"min":[0.30533820390701294,0.09176647663116455],"type":"VEC2"},{"bufferView":11,"componentType":5123,"count":714,"max":[713],"min":[0],"type":"SCALAR"},{"bufferView":12,"componentType":5126,"count":735,"max":[7.754802703857422,8.370498657226562,-0.6493682861328125],"min":[-0.3307533264160156,0.10590744018554688,-11.905609130859375],"type":"VEC3"},{"bufferView":13,"componentType":5126,"count":735,"max":[0.9641481041908264,0.9448919892311096,0.7962125539779663],"min":[-0.9491649270057678,-0.9967091083526611,-0.7826035618782043],"type":"VEC3"},{"bufferView":14,"componentType":5126,"count":735,"max":[0.6581065654754639,0.4886118173599243],"min":[0.5216094255447388,0.2878991365432739],"type":"VEC2"},{"bufferView":15,"componentType":5123,"count":735,"max":[734],"min":[0],"type":"SCALAR"},{"bufferView":16,"componentType":5126,"count":456,"max":[8.490680694580078,-3.591594696044922,0.6451568603515625],"min":[-1.9867134094238281,-6.3369598388671875,-3.167724609375],"type":"VEC3"},{"bufferView":17,"componentType":5126,"count":456,"max":[0.21359758079051971,-0.89659184217453,0.08500615507364273],"min":[-0.42261606454849243,-0.9988248944282532,-0.37637820839881897],"type":"VEC3"},{"bufferView":18,"componentType":5126,"count":456,"max":[0.5337402820587158,0.358803391456604],"min":[0.3085172772407532,0.1925731897354126],"type":"VEC2"},{"bufferView":19,"componentType":5123,"count":456,"max":[455],"min":[0],"type":"SCALAR"},{"bufferView":20,"componentType":5126,"count":219807,"max":[15.919151306152344,33.49690246582031,20.30828857421875],"min":[-22.040607452392578,-10.5045166015625,-15.818008422851562],"type":"VEC3"},{"bufferView":21,"componentType":5126,"count":219807,"max":[0.9955002665519714,0.9998984932899475,0.9999884366989136],"min":[-0.9995033740997314,-0.9999713897705078,-0.9991981983184814],"type":"VEC3"},{"bufferView":22,"componentType":5126,"count":219807,"max":[1.8362290859222412,0.8882099390029907],"min":[0.15625864267349243,-0.04576873779296875],"type":"VEC2"},{"bufferView":23,"componentType":5125,"count":219807,"max":[219806],"min":[0],"type":"SCALAR"},{"bufferView":24,"componentType":5126,"count":55746,"max":[-0.5714607238769531,16.19618034362793,-1.5950469970703125],"min":[-17.81964874267578,-3.587386131286621,-15.900360107421875],"type":"VEC3"},{"bufferView":25,"componentType":5126,"count":55746,"max":[0.9948669075965881,0.9406227469444275,0.9978736639022827],"min":[-0.9991655349731445,-0.9999017715454102,-0.997321367263794],"type":"VEC3"},{"bufferView":26,"componentType":5126,"count":55746,"max":[1.36842942237854,0.9867779016494751],"min":[0.02822244167327881,0.3287618160247803],"type":"VEC2"},{"bufferView":27,"componentType":5123,"count":55746,"max":[55745],"min":[0],"type":"SCALAR"},{"bufferView":28,"componentType":5126,"count":44013,"max":[6.616306304931641,5.538084030151367,4.861900329589844],"min":[-3.4300146102905273,-3.069427490234375,-6.03193473815918],"type":"VEC3"},{"bufferView":29,"componentType":5126,"count":44013,"max":[1,1,1],"min":[-1,-1,-1],"type":"VEC3"},{"bufferView":30,"componentType":5123,"count":44013,"max":[44012],"min":[0],"type":"SCALAR"},{"bufferView":31,"componentType":5126,"count":3639,"max":[8.120559692382812,-3.3616933822631836,-0.638031005859375],"min":[-1.7219734191894531,-6.309431076049805,-8.512222290039062],"type":"VEC3"},{"bufferView":32,"componentType":5126,"count":3639,"max":[0.40815627574920654,-0.5819641947746277,0.0577055960893631],"min":[-0.605615496635437,-0.9984180927276611,-0.7674143314361572],"type":"VEC3"},{"bufferView":33,"componentType":5126,"count":3639,"max":[0.5388456583023071,0.43786346912384033],"min":[0.32258838415145874,0.21989166736602783],"type":"VEC2"},{"bufferView":34,"componentType":5123,"count":3639,"max":[3638],"min":[0],"type":"SCALAR"},{"bufferView":35,"componentType":5126,"count":37284,"max":[7.891143798828125,7.747677803039551,-0.1893768310546875],"min":[-0.4466133117675781,-0.48668861389160156,-9.597900390625],"type":"VEC3"},{"bufferView":36,"componentType":5126,"count":37284,"max":[0.6291409134864807,0.20049141347408295,-0.13350829482078552],"min":[-0.8596993684768677,-0.9281452894210815,-0.9138164520263672],"type":"VEC3"},{"bufferView":37,"componentType":5126,"count":37284,"max":[1.7534308433532715,0.8811376094818115],"min":[0.58305823802948,0.2413121461868286],"type":"VEC2"},{"bufferView":38,"componentType":5123,"count":37284,"max":[37283],"min":[0],"type":"SCALAR"},{"bufferView":39,"componentType":5126,"count":819,"max":[3.650463104248047,7.872026443481445,3.10235595703125],"min":[0.09533309936523438,-1.2716407775878906,-1.9872589111328125],"type":"VEC3"},{"bufferView":40,"componentType":5126,"count":819,"max":[0.9592384099960327,0.9940616488456726,0.9859727621078491],"min":[-0.979095995426178,-0.9656218886375427,-0.9867132902145386],"type":"VEC3"},{"bufferView":41,"componentType":5126,"count":819,"max":[0.38261252641677856,0.43456947803497314],"min":[0.30327802896499634,0.3210240602493286],"type":"VEC2"},{"bufferView":42,"componentType":5123,"count":819,"max":[818],"min":[0],"type":"SCALAR"}],"materials":[{"pbrMetallicRoughness":{"baseColorFactor":[1,1,1,1],"metallicFactor":0,"roughnessFactor":1,"baseColorTexture":{"index":0,"extensions":{"KHR_texture_transform":{"scale":[1.100000023841858,1.100000023841858]}}}},"name":"Material #23"},{"pbrMetallicRoughness":{"baseColorFactor":[1,0.014388442039489746,0.014388442039489746,1],"metallicFactor":1,"roughnessFactor":1},"name":"Material #22"}],"textures":[{"name":"Material__23_diffuse.png","sampler":0,"source":0}],"images":[{"mimeType":"image/png","uri":"Material__23_diffuse.png"}],"samplers":[{"magFilter":9729,"minFilter":9987}],"meshes":[{"primitives":[{"mode":4,"attributes":{"POSITION":0,"NORMAL":1,"TEXCOORD_0":2},"indices":3,"material":0}]},{"primitives":[{"mode":4,"attributes":{"POSITION":4,"NORMAL":5,"TEXCOORD_0":6},"indices":7,"material":0}]},{"primitives":[{"mode":4,"attributes":{"POSITION":8,"NORMAL":9,"TEXCOORD_0":10},"indices":11,"material":0}]},{"primitives":[{"mode":4,"attributes":{"POSITION":12,"NORMAL":13,"TEXCOORD_0":14},"indices":15,"material":0}]},{"primitives":[{"mode":4,"attributes":{"POSITION":16,"NORMAL":17,"TEXCOORD_0":18},"indices":19,"material":0}]},{"primitives":[{"mode":4,"attributes":{"POSITION":20,"NORMAL":21,"TEXCOORD_0":22},"indices":23,"material":0}]},{"primitives":[{"mode":4,"attributes":{"POSITION":24,"NORMAL":25,"TEXCOORD_0":26},"indices":27,"material":0}]},{"primitives":[{"mode":4,"attributes":{"POSITION":28,"NORMAL":29},"indices":30,"material":1}]},{"primitives":[{"mode":4,"attributes":{"POSITION":31,"NORMAL":32,"TEXCOORD_0":33},"indices":34,"material":0}]},{"primitives":[{"mode":4,"attributes":{"POSITION":35,"NORMAL":36,"TEXCOORD_0":37},"indices":38,"material":0}]},{"primitives":[{"mode":4,"attributes":{"POSITION":39,"NORMAL":40,"TEXCOORD_0":41},"indices":42,"material":0}]}],"extensionsUsed":["KHR_texture_transform"]}