{"asset":{"version":"2.0","generator":"Point105-AR.GLTFExporter"},"scenes":[{"nodes":[0]}],"scene":0,"nodes":[{"matrix":[0.0027217338187836893,0.0007752752630594774,-0.004132808024864872,0,-0.004020803890554925,0.0019205719951830948,-0.0022876905754990306,0,0.0012305648088368297,0.00456062903760804,0.0016659406127362188,0,-0.10084665451049805,0.41605822830200195,-0.045580163574218756,1],"name":"Plane003","mesh":0}],"bufferViews":[{"buffer":0,"byteOffset":0,"byteLength":464868,"target":34962,"byteStride":12},{"buffer":0,"byteOffset":464868,"byteLength":464868,"target":34962,"byteStride":12},{"buffer":0,"byteOffset":929736,"byteLength":77480,"target":34963}],"buffers":[{"byteLength":1007216,"uri":"lardafab.bin"}],"accessors":[{"bufferView":0,"componentType":5126,"count":38739,"max":[107.13273620605469,153.21005249023438,82.82909393310547],"min":[-157.49566650390625,-163.5973663330078,-18.56818962097168],"type":"VEC3"},{"bufferView":1,"componentType":5126,"count":38739,"max":[0.9954966902732849,0.9300223588943481,0.9999849796295166],"min":[-0.9999902844429016,-0.9792879223823547,-0.9837280511856079],"type":"VEC3"},{"bufferView":2,"componentType":5123,"count":38739,"max":[38738],"min":[0],"type":"SCALAR"}],"materials":[{"pbrMetallicRoughness":{"baseColorFactor":[0.22022384163448516,0.08121810246826278,0.3080169473709561,0.7342986385898782],"metallicFactor":0.001658801119657718,"roughnessFactor":0.6349881363015402},"emissiveFactor":[1,0,1],"alphaMode":"BLEND","doubleSided":true,"name":"Material #25"}],"meshes":[{"primitives":[{"mode":4,"attributes":{"POSITION":0,"NORMAL":1},"indices":2,"material":0}]}]}