{"asset":{"version":"2.0","generator":"Point105-AR.GLTFExporter"},"scenes":[{"nodes":[0]}],"scene":0,"nodes":[{"matrix":[0.00030156259356215517,-0.00028414020166902,-6.828231140887557e-20,0,0.00028388075935706586,0.00030128724323857155,0.000017702078098417277,0,-0.000012139549883214839,-0.000012883900715055333,0.00041395928359132435,0,0,1.207269817352295,0,1],"name":"Nickz_humanMaleAveragenoise","mesh":0}],"bufferViews":[{"buffer":0,"byteOffset":0,"byteLength":193320,"target":34962,"byteStride":12},{"buffer":0,"byteOffset":193320,"byteLength":193320,"target":34962,"byteStride":12},{"buffer":0,"byteOffset":386640,"byteLength":32220,"target":34963}],"buffers":[{"byteLength":418860,"uri":"noise.bin"}],"accessors":[{"bufferView":0,"componentType":5126,"count":16110,"max":[3710.015869140625,3993.840087890625,2935.577880859375],"min":[-3878.578125,-3570.061279296875,-3467.768798828125],"type":"VEC3"},{"bufferView":1,"componentType":5126,"count":16110,"max":[1,1,1],"min":[-1,-0.9980812668800354,-1],"type":"VEC3"},{"bufferView":2,"componentType":5123,"count":16110,"max":[16109],"min":[0],"type":"SCALAR"}],"materials":[{"pbrMetallicRoughness":{"baseColorFactor":[0.9455047929511144,0.9159704164349206,0.9327480271021436,0.2911327454926591],"metallicFactor":0.001658801119657718,"roughnessFactor":0.6974646319919625},"alphaMode":"BLEND","doubleSided":true,"name":"Material #30"}],"meshes":[{"primitives":[{"mode":4,"attributes":{"POSITION":0,"NORMAL":1},"indices":2,"material":0}]}]}