{"asset":{"version":"2.0","generator":"Point105-AR.GLTFExporter"},"scenes":[{"nodes":[0]}],"scene":0,"nodes":[{"matrix":[0.0002622884116424954,-0.0002872607930882033,-1.3495835324661113e-20,0,0.0002835698952028499,0.0002589183737982194,-0.00006215596811197536,0,0.00004590073834164604,0.00004191045921519642,0.0003839929813885532,0,-0.06249986724853516,0.7424606887817383,-0.0748435905456543,1],"name":"Nickz_humanMaleAveragefoda","mesh":0}],"bufferViews":[{"buffer":0,"byteOffset":0,"byteLength":396792,"target":34962,"byteStride":12},{"buffer":0,"byteOffset":396792,"byteLength":396792,"target":34962,"byteStride":12},{"buffer":0,"byteOffset":793584,"byteLength":66132,"target":34963}],"buffers":[{"byteLength":859716,"uri":"TYTYBALOAR.bin"}],"accessors":[{"bufferView":0,"componentType":5126,"count":33066,"max":[2760.52294921875,3007.740234375,2859.80224609375],"min":[-2660.658447265625,-2401.890869140625,-3433.541015625],"type":"VEC3"},{"bufferView":1,"componentType":5126,"count":33066,"max":[0.9980525970458984,0.999988853931427,1],"min":[-1,-1,-1],"type":"VEC3"},{"bufferView":2,"componentType":5123,"count":33066,"max":[33065],"min":[0],"type":"SCALAR"}],"materials":[{"pbrMetallicRoughness":{"baseColorFactor":[0.38837146503298375,0.081760244611147,0.08783727305357168,0.7719091013610813],"metallicFactor":0.001658801119657718,"roughnessFactor":0},"alphaMode":"BLEND","doubleSided":true,"name":"Material #29"}],"meshes":[{"primitives":[{"mode":4,"attributes":{"POSITION":0,"NORMAL":1},"indices":2,"material":0}]}]}