{"asset":{"version":"2.0","generator":"Point105-AR.GLTFExporter"},"scenes":[{"nodes":[0,1,2,3]}],"scene":0,"nodes":[{"matrix":[-0.00017564317353954196,0.00017848255426014528,0.0002269982102574579,0,-0.00027305351764036134,-0.000016216267459372512,-0.0001985287262690798,0,-0.00009394699014595741,-0.0002865580881725208,0.00015262002280951107,0,-0.06656085968017578,2.800450769042969,-0.1414518310546875,1],"name":"peval","mesh":0},{"matrix":[0.051802119064331055,0,0,0,0,0.051802119064331055,0,0,0,0,0.051802119064331055,0,0.14234150543212892,1.825197312927246,0.24708060646057128,1],"name":"Sphere001","mesh":1},{"matrix":[0.051802119064331055,0,0,0,0,0.051802119064331055,0,0,0,0,0.051802119064331055,0,0.6732104583740235,1.986756056213379,0.21352795486450193,1],"name":"Sphere002","mesh":2},{"matrix":[0.013145754184119372,0.0013282636040387577,-0.0024954893961536178,0,-0.0013340827061002136,0.013379612310996975,0.00009382077660953931,0,0.002492383089046211,0.0001558678849359458,0.013212353901674065,0,-0.10818060607910157,2.2562640243530274,0.35637340240478516,1],"name":"MINHOCA003","mesh":3}],"bufferViews":[{"buffer":0,"byteOffset":0,"byteLength":11959704,"target":34962,"byteStride":12},{"buffer":0,"byteOffset":11959704,"byteLength":11959704,"target":34962,"byteStride":12},{"buffer":0,"byteOffset":23919408,"byteLength":3986568,"target":34963},{"buffer":0,"byteOffset":27905976,"byteLength":34560,"target":34962,"byteStride":12},{"buffer":0,"byteOffset":27940536,"byteLength":34560,"target":34962,"byteStride":12},{"buffer":0,"byteOffset":27975096,"byteLength":23040,"target":34962,"byteStride":8},{"buffer":0,"byteOffset":27998136,"byteLength":5760,"target":34963},{"buffer":0,"byteOffset":28003896,"byteLength":34560,"target":34962,"byteStride":12},{"buffer":0,"byteOffset":28038456,"byteLength":34560,"target":34962,"byteStride":12},{"buffer":0,"byteOffset":28073016,"byteLength":23040,"target":34962,"byteStride":8},{"buffer":0,"byteOffset":28096056,"byteLength":5760,"target":34963},{"buffer":0,"byteOffset":28101816,"byteLength":67392,"target":34962,"byteStride":12},{"buffer":0,"byteOffset":28169208,"byteLength":67392,"target":34962,"byteStride":12},{"buffer":0,"byteOffset":28236600,"byteLength":44928,"target":34962,"byteStride":8},{"buffer":0,"byteOffset":28281528,"byteLength":11232,"target":34963}],"buffers":[{"byteLength":28292760,"uri":"valu.bin"}],"accessors":[{"bufferView":0,"componentType":5126,"count":996642,"max":[5031.4677734375,5451.1640625,6462.23681640625],"min":[-6485.68115234375,-2447.228515625,-4073.678955078125],"type":"VEC3"},{"bufferView":1,"componentType":5126,"count":996642,"max":[0.9999868869781494,0.9999997615814209,0.9999934434890747],"min":[-0.9999991655349731,-0.9999953508377075,-0.999989926815033],"type":"VEC3"},{"bufferView":2,"componentType":5125,"count":996642,"max":[996641],"min":[0],"type":"SCALAR"},{"bufferView":3,"componentType":5126,"count":2880,"max":[1.4334022998809814,1.4334022998809814,1.4334022998809814],"min":[-1.4334022998809814,-1.4334022998809814,-1.4334022998809814],"type":"VEC3"},{"bufferView":4,"componentType":5126,"count":2880,"max":[1,1,0.9999999403953552],"min":[-0.9999999403953552,-1,-1],"type":"VEC3"},{"bufferView":5,"componentType":5126,"count":2880,"max":[1.000000238418579,1.0000001192092896],"min":[0,0],"type":"VEC2"},{"bufferView":6,"componentType":5123,"count":2880,"max":[2879],"min":[0],"type":"SCALAR"},{"bufferView":7,"componentType":5126,"count":2880,"max":[1.4334022998809814,1.4334022998809814,1.4334022998809814],"min":[-1.4334022998809814,-1.4334022998809814,-1.4334022998809814],"type":"VEC3"},{"bufferView":8,"componentType":5126,"count":2880,"max":[1,1,0.9999999403953552],"min":[-0.9999999403953552,-1,-1],"type":"VEC3"},{"bufferView":9,"componentType":5126,"count":2880,"max":[1.000000238418579,1.0000001192092896],"min":[0,0],"type":"VEC2"},{"bufferView":10,"componentType":5123,"count":2880,"max":[2879],"min":[0],"type":"SCALAR"},{"bufferView":11,"componentType":5126,"count":5616,"max":[132.28770446777344,8.858925819396973,39.2318115234375],"min":[-48.21851348876953,-55.67371368408203,-35.54268264770508],"type":"VEC3"},{"bufferView":12,"componentType":5126,"count":5616,"max":[0.9822712540626526,0.9984571933746338,0.9993405342102051],"min":[-0.9864208102226257,-0.9999029040336609,-0.9965571761131287],"type":"VEC3"},{"bufferView":13,"componentType":5126,"count":5616,"max":[1.017136573791504,0.9503211975097656],"min":[0.2778828740119934,0.01220005750656128],"type":"VEC2"},{"bufferView":14,"componentType":5123,"count":5616,"max":[5615],"min":[0],"type":"SCALAR"}],"materials":[{"pbrMetallicRoughness":{"baseColorFactor":[0.9305866663185255,0.9305866663185255,0.9305866663185255,1],"metallicFactor":0.9990889488055994,"roughnessFactor":0},"doubleSided":true,"name":"Material #4"},{"pbrMetallicRoughness":{"baseColorFactor":[0.9522951538584714,0.6217095961299205,0.699254360094834,1],"metallicFactor":0.9990889488055994,"roughnessFactor":0.11297298337159889},"doubleSided":true,"name":"Material #9"},{"pbrMetallicRoughness":{"metallicFactor":0,"roughnessFactor":1,"baseColorTexture":{"index":0},"baseColorFactor":[1,1,1,1]},"doubleSided":true,"name":"Material #7"}],"meshes":[{"primitives":[{"mode":4,"attributes":{"POSITION":0,"NORMAL":1},"indices":2,"material":0}]},{"primitives":[{"mode":4,"attributes":{"POSITION":3,"NORMAL":4,"TEXCOORD_0":5},"indices":6,"material":1}]},{"primitives":[{"mode":4,"attributes":{"POSITION":7,"NORMAL":8,"TEXCOORD_0":9},"indices":10,"material":1}]},{"primitives":[{"mode":4,"attributes":{"POSITION":11,"NORMAL":12,"TEXCOORD_0":13},"indices":14,"material":2}]}],"textures":[{"name":"Material__7_diffuse.png","sampler":0,"source":0}],"images":[{"mimeType":"image/png","uri":"Material__7_diffuse.png"}],"samplers":[{"magFilter":9729,"minFilter":9987}]}